<svg xmlns="http://www.w3.org/2000/svg" viewBox="0 0 51.18 51.18"><defs><style>.cls-1{stroke:#000;stroke-miterlimit:10;stroke-width:2px;}</style></defs><g id="Capa_2" data-name="Capa 2"><g id="Capa_1-2" data-name="Capa 1"><path class="cls-1" d="M25.59,50.18A24.59,24.59,0,1,1,50.18,25.59,24.62,24.62,0,0,1,25.59,50.18Zm0-47.66A23.07,23.07,0,1,0,48.66,25.59,23.1,23.1,0,0,0,25.59,2.52Z"/><rect class="cls-1" x="24.83" y="10.5" width="1.52" height="19.66"/><rect class="cls-1" x="21.08" y="23.78" width="13.43" height="1.52" transform="translate(-9.18 21.78) rotate(-37.17)"/><rect class="cls-1" x="24.83" y="5.2" width="1.52" height="1.69"/><rect class="cls-1" x="10.57" y="11.1" width="1.52" height="1.69" transform="translate(-5.13 11.51) rotate(-45)"/><rect class="cls-1" x="4.57" y="25.45" width="1.69" height="1.52"/><rect class="cls-1" x="10.48" y="39.71" width="1.69" height="1.52" transform="translate(-25.3 19.87) rotate(-45)"/><rect class="cls-1" x="24.83" y="45.54" width="1.52" height="1.69"/><rect class="cls-1" x="39.09" y="39.63" width="1.52" height="1.69" transform="translate(-16.95 40.03) rotate(-45)"/><rect class="cls-1" x="44.91" y="25.45" width="1.69" height="1.52"/><rect class="cls-1" x="39.01" y="11.19" width="1.69" height="1.52" transform="translate(3.22 31.68) rotate(-45)"/></g></g></svg>